<svg width="448" height="167" viewBox="0 0 448 167" fill="none" xmlns="http://www.w3.org/2000/svg">
<path d="M67.1826 66.9629V100.2H83.9982V116.981H100.65V133.6H117.303V150.381H134.118V167H83.9982V150.381H67.1826V133.6H50.5303V116.981H33.878V167H0.410156V0.162927H33.878V50.1815H50.5303V33.5629H67.1826V16.9444H83.9982V0.162927H134.118V16.9444H117.303V33.5629H100.65V50.1815H83.9982V66.9629H67.1826Z" fill="white"/>
<path d="M290.846 0V50.0185H274.194V66.8H257.378V83.4185H240.726V100.2H224.073V116.819H207.258V133.437H190.606V166.837H157.138V116.819H173.953V100.2H190.606V83.4185H207.258V66.8H224.073V50.0185H240.726V33.4H157.138V0H290.846Z" fill="white"/>
<path d="M430.758 16.7815H447.41V66.8H430.758V83.4185H414.106V100.037H380.638V116.819H363.985V133.437H447.41V166.837H313.865V116.819H330.518V100.037H347.17V83.4185H380.638V66.8H397.29V50.0185H414.106V33.4H347.17V50.0185H313.865V16.7815H330.518V0H430.758V16.7815Z" fill="white"/>
</svg>
